<?xml version="1.0" encoding="UTF-8" standalone="no"?>
<!DOCTYPE svg PUBLIC "-//W3C//DTD SVG 1.1//EN" "http://www.w3.org/Graphics/SVG/1.1/DTD/svg11.dtd">
<svg xmlns="http://www.w3.org/2000/svg" version="1.1" viewBox="0.00 0.00 100.00 100.00">
<path fill="#000000" d="
  M 27.60 72.24
  A 0.49 0.48 28.2 0 0 27.40 71.59
  Q 22.38 68.78 18.46 63.82
  C 5.63 47.56 14.79 27.38 32.48 20.23
  Q 50.13 13.09 67.44 20.20
  C 87.86 28.60 95.44 52.72 77.20 68.22
  Q 66.09 77.66 49.23 77.80
  A 1.55 1.52 26.6 0 0 48.33 78.09
  C 44.14 81.05 30.52 88.80 25.79 84.91
  C 20.93 80.91 25.53 76.26 27.60 72.24
  Z
  M 40.12 43.30
  Q 33.80 43.74 33.38 50.34
  C 32.68 61.31 50.61 61.40 48.14 47.89
  Q 46.62 39.57 39.02 35.14
  A 2.33 2.33 0.0 0 0 35.96 35.80
  L 35.94 35.83
  A 2.13 2.12 -55.5 0 0 36.49 38.83
  Q 39.53 40.86 40.50 42.59
  A 0.48 0.47 73.6 0 1 40.12 43.30
  Z
  M 59.57 43.30
  Q 53.25 43.74 52.84 50.34
  C 52.14 61.30 70.06 61.38 67.59 47.88
  Q 66.06 39.57 58.46 35.14
  A 2.33 2.33 0.0 0 0 55.41 35.80
  L 55.39 35.83
  A 2.13 2.12 -55.5 0 0 55.94 38.83
  Q 58.98 40.86 59.95 42.59
  A 0.48 0.47 73.6 0 1 59.57 43.30
  Z"
/>
</svg>
